<?xml version="1.0" encoding="iso-8859-1"?>
<!-- Generator: Adobe Illustrator 16.0.0, SVG Export Plug-In . SVG Version: 6.00 Build 0)  -->
<!DOCTYPE svg PUBLIC "-//W3C//DTD SVG 1.1//EN" "http://www.w3.org/Graphics/SVG/1.1/DTD/svg11.dtd">
<svg version="1.1" id="Capa_1" xmlns="http://www.w3.org/2000/svg" xmlns:xlink="http://www.w3.org/1999/xlink" x="0px" y="0px"
	 width="25.748px" height="25.747px" viewBox="0 0 25.748 25.747" style="enable-background:new 0 0 25.748 25.747;"
	 xml:space="preserve">
<g>
	<path d="M23.232,23.268v-0.377h-0.763l-0.139-2.484l-0.415,0.162c-0.557,0.218-1.107,0.352-1.671,0.41l-0.776-7.035
		c0.124-0.914,0.287-2.308,0.35-3.737C19.924,7.761,20.291,0,13.25,0C6.209,0,6.402,6.48,6.402,6.48l0.513,8.407L6.28,21.001
		c-0.705-0.026-1.388-0.164-2.078-0.435l-0.415-0.161l-0.138,2.485H2.854v0.377H0.085v2.479h1.827h7.567h7.974h7.081h1.127v-2.479
		H23.232z M19.609,21.656c0.727,0,1.427-0.111,2.127-0.34l0.07,1.25h-8.414c0.041-0.59,0.236-1.816,1.164-1.928
		c0.463-0.057,1.057,0.141,1.768,0.369C17.218,21.297,18.329,21.656,19.609,21.656z M16.844,20.497c0.109-0.709,0.315-2,0.548-3.347
		l0.502,3.645C17.525,20.707,17.177,20.604,16.844,20.497z M7.814,5.676c1.529-0.104,6.813-0.584,6.949-2.293
		c0.504,0.928,3.17,3.266,4.229,3.42c-0.239,2.339-1.914,4.25-4.128,4.846v1.958h0.012l0.709,0.338l-2.229,4.017l-2.185-4.142
		l0.557-0.139v-2.09c-2.286-0.713-3.944-2.845-3.944-5.364C7.786,6.042,7.795,5.857,7.814,5.676z M9.796,20.333
		c-0.067,0.022-0.131,0.041-0.199,0.063c-0.303,0.097-0.624,0.195-0.955,0.289l0.38-2.94C9.315,18.736,9.599,19.682,9.796,20.333z
		 M4.382,21.316c0.701,0.229,1.401,0.34,2.128,0.34c1.279,0,2.392-0.359,3.286-0.646c0.711-0.229,1.303-0.425,1.767-0.369
		c0.924,0.109,1.122,1.336,1.164,1.926H4.313L4.382,21.316z"/>
</g>
<g>
</g>
<g>
</g>
<g>
</g>
<g>
</g>
<g>
</g>
<g>
</g>
<g>
</g>
<g>
</g>
<g>
</g>
<g>
</g>
<g>
</g>
<g>
</g>
<g>
</g>
<g>
</g>
<g>
</g>
</svg>
